# xmcd
#
# Track frame offsets: 
#        182
#        19270
#        40890
#        46587
#        72662
#        87047
#        95252
#        109940
#        125732
#        146065
#        162345
#        168577
#        197362
#        208510
#        220907
#        246807
#        257622
#        273430
#        286997
#        296960
#        301552
#        312157
#        322420
#
# Disc length: 4503 seconds
#
# Revision: 10
# Processed by: cddbd v1.5.2PL0 Copyright (c) Steve Scherf et al.
# Submitted via: ExactAudioCopy v1.3
#
DISCID=5b119517
DTITLE=Karel Kryl - To nejlepsi
DYEAR=1993
DGENRE=Folk
TTITLE0=Kral a klaun
TTITLE1=Velicenstvo kat
TTITLE2=Tak vas tu mame
TTITLE3=Divny knize
TTITLE4=Andel
TTITLE5=Hle, jak se perou
TTITLE6=Morituri te salutant
TTITLE7=Ukolebavka
TTITLE8=Nevidoma divka
TTITLE9=Lasko!
TTITLE10=Pochod Gustapa
TTITLE11=Tekute pisky
TTITLE12=Sametove jaro
TTITLE13=Pisen neznameho vojina
TTITLE14=Rakovina
TTITLE15=Maskary
TTITLE16=Marat ve vane
TTITLE17=Bludny holandan
TTITLE18=Zari
TTITLE19=Co reknou
TTITLE20=Habet
TTITLE21=Bratricku, zavirej vratka
TTITLE22=Dekuji
EXTD=YEAR: 1993
EXTT0=
EXTT1=
EXTT2=
EXTT3=
EXTT4=
EXTT5=
EXTT6=
EXTT7=
EXTT8=
EXTT9=
EXTT10=
EXTT11=
EXTT12=
EXTT13=
EXTT14=
EXTT15=
EXTT16=
EXTT17=
EXTT18=
EXTT19=
EXTT20=
EXTT21=
EXTT22=
PLAYORDER=
